Simulation
nRows=36
nColumns=15
endheader
time  TH_x TH_y TH_z SC_y  SC_z  SC_x  AC_y  AC_z  AC_x  GH_y  GH_z  GH_yy  EL_x  PS_y
0.0  0.000000  0.000000  0.000000  -30.049772685274174  -0.16696273323024394  7.353399179272499  53.6910616175109  1.056796839653995  -11.703066440137743  85.3441928603743  2.2117206303455657  -57.80410867928695  22.58112863320207  0.000000
0.031  0.000000  0.000000  0.000000  -29.97394561339885  -0.22573211313204974  7.596497533731046  53.54303161425879  0.7805927106916666  -12.02750420441214  83.21378627769826  2.226718412926755  -55.728848283832235  22.63711016812508  0.000000
0.062  0.000000  0.000000  0.000000  -29.89025133374327  -0.28571492156206774  7.842561617150469  53.40315680707835  0.5088353023212694  -12.352472189253703  81.08876289756574  2.25363817044451  -53.645960182556216  22.667195572748774  0.000000
0.093  0.000000  0.000000  0.000000  -29.828065156509936  -0.3472009353525885  8.098081127782319  53.28040556163156  0.24608381539202212  -12.670246937913628  78.95334548410301  2.3307870297647284  -51.56822409776778  22.653467101091447  0.000000
0.124  0.000000  0.000000  0.000000  -29.786907199363846  -0.4096228643704491  8.365531969832011  53.183713783445555  -0.002968220792802403  -12.975569556530735  76.79551260168492  2.4858236400921787  -49.504603601593196  22.587713659986395  0.000000
0.155  0.000000  0.000000  0.000000  -29.77294542638104  -0.4705272447906244  8.643360912372032  53.11617375567208  -0.23509849042652484  -13.262181307675492  74.60145562886228  2.7421671588771197  -47.466200042482726  22.470203260196136  0.000000
0.186  0.000000  0.000000  0.000000  -29.78671026508362  -0.528329423722134  8.925396843200245  53.07680688566358  -0.4471792520676294  -13.525231322205624  72.36005831122618  3.114329557746488  -45.46233384179306  22.303704451963384  0.000000
0.217  0.000000  0.000000  0.000000  -29.830475129178  -0.5808927918282029  9.201492073431714  53.061084118605315  -0.6352877885574595  -13.760774401826495  70.0648855307988  3.608205356204092  -43.498878638397684  22.09627604138283  0.000000
0.248  0.000000  0.000000  0.000000  -29.898463703337566  -0.6241377546715113  9.457646365337043  53.058720311640705  -0.7950349625760458  -13.965896367904204  67.7125367882208  4.218274396435484  -41.58050425551667  21.86655411752754  0.000000
0.279  0.000000  0.000000  0.000000  -29.97493221078591  -0.6531289020476154  9.67934724143006  53.05776337518224  -0.920261412719269  -14.13782708365629  65.30552319781336  4.927136692282628  -39.708149189718675  21.64305363846707  0.000000
0.31  0.000000  0.000000  0.000000  -30.04385289401098  -0.6637239869672217  9.853416780260016  53.04966512902878  -1.0059236210744598  -14.272144190215704  62.8488944921653  5.715062634442632  -37.883164585970704  21.455498186042693  0.000000
0.34099999999999997  0.000000  0.000000  0.000000  -30.101315444295487  -0.6561795365061223  9.969998051511743  53.036113579654746  -1.051361907924209  -14.360968305981778  60.34873076357906  6.571209601265682  -36.1097053944002  21.319935770905957  0.000000
0.372  0.000000  0.000000  0.000000  -30.157170413924085  -0.6367393179747584  10.023461147409272  53.02962540105892  -1.0615775218659174  -14.393468612271468  57.81146276803623  7.498175474532315  -34.39615585187548  21.233714643023006  0.000000
0.403  0.000000  0.000000  0.000000  -30.22665770509281  -0.6145636370163863  10.012414455109782  53.048076070957315  -1.0448570345488026  -14.358867759694762  55.245836469061665  8.507621192677846  -32.75291185289874  21.183277286363552  0.000000
0.434  0.000000  0.000000  0.000000  -30.318277019446533  -0.597412254362881  9.940078572736754  53.105027178433076  -1.0068214682541248  -14.252314946884093  52.66727307679593  9.610184437271803  -31.186564773962075  21.15794743806058  0.000000
0.46499999999999997  0.000000  0.000000  0.000000  -30.429759897560682  -0.5864295896066684  9.814343859235928  53.203046340423555  -0.9471077179624298  -14.078202929363682  50.101397060049194  10.809653975773085  -29.695137257933194  21.15662439333502  0.000000
0.496  0.000000  0.000000  0.000000  -30.55305881047613  -0.573662232092768  9.647844345154423  53.33337683931529  -0.8620787050714375  -13.848522217527957  47.58238810081893  12.103578108740363  -28.269797403904207  21.18402391596873  0.000000
0.527  0.000000  0.000000  0.000000  -30.680188744705827  -0.547701092756237  9.458034032737514  53.48145241316809  -0.7499169437982689  -13.579743717765771  45.1465575240656  13.486533650810557  -26.90217303463239  21.240417936574527  0.000000
0.558  0.000000  0.000000  0.000000  -30.807263818915246  -0.4990787701169169  9.265578447175367  53.63391822789721  -0.6150209186086594  -13.288014366031396  42.82668564606722  14.953959750630121  -25.591371267152912  21.31630796453404  0.000000
0.589  0.000000  0.000000  0.000000  -30.93463879652306  -0.42168079171503386  9.091423723684354  53.78258478949621  -0.4675103204714846  -12.987373883228253  40.649515827857456  16.50426025773904  -24.34649034561559  21.39933709410954  0.000000
0.62  0.000000  0.000000  0.000000  -31.063984949955568  -0.31576682189833555  8.953902904134631  53.92525170670386  -0.31818638076772066  -12.691226726410758  38.63468848500582  18.138343773143788  -23.18554290498808  21.476949079182347  0.000000
0.651  0.000000  0.000000  0.000000  -31.194307629388884  -0.18843666155759  8.868772688041254  54.063721368975486  -0.1749084400088015  -12.413074360349619  36.79361906978634  19.855340224672553  -22.131746318196377  21.53706430134499  0.000000
0.6819999999999999  0.000000  0.000000  0.000000  -31.319644268710718  -0.0485664933192329  8.851682781581106  54.201643224316236  -0.04186486996978079  -12.165962625062209  35.130356030432615  21.647244222624845  -21.20654164310173  21.573327323632924  0.000000
0.713  0.000000  0.000000  0.000000  -31.429200770793358  0.09685793445407206  8.918816287898558  54.34281137529708  0.08009104448893022  -11.961378181601408  33.64270556950642  23.49719192185748  -20.424524571642568  21.5845485005886  0.000000
0.744  0.000000  0.000000  0.000000  -31.509365869652274  0.2431749920542924  9.086198228389888  54.48955463257119  0.19287840356925584  -11.80941844729305  32.32272532703795  25.380034820247243  -19.791583783088488  21.571936981284917  0.000000
0.775  0.000000  0.000000  0.000000  -31.547635158608653  0.38856722735113075  9.36847485631766  54.642178753157935  0.29950195889603193  -11.717731260396857  31.158344998128587  27.264288112557658  -19.305061253592946  21.537248812166734  0.000000
0.806  0.000000  0.000000  0.000000  -31.53650086327857  0.5340833870062992  9.77685374910458  54.79978264969113  0.40164265289796114  -11.689488927432766  30.13483920742291  29.116309720213447  -18.95613951623087  21.480662794221654  0.000000
0.837  0.000000  0.000000  0.000000  -31.475198451949716  0.6830552548945314  10.317445174337  54.96170259773185  0.49772953472044457  -11.722334998803722  29.235545971593627  30.904842144448093  -18.73259634088187  21.40000751018405  0.000000
0.868  0.000000  0.000000  0.000000  -31.36958725887652  0.8398786702630293  10.98932335033881  55.127744774359975  0.5831597435484934  -11.808121997572036  28.443029546460636  32.605106449051775  -18.620369768916323  21.29151825002772  0.000000
0.899  0.000000  0.000000  0.000000  -31.23050700807292  1.008157102245028  11.782480058218415  55.29759446201902  0.6533596665284452  -11.934271301466525  27.74079966340531  34.201761760510465  -18.60430803165598  21.152040547959885  0.000000
0.9299999999999999  0.000000  0.000000  0.000000  -31.071583731746614  1.1898673724715974  12.677767786573552  55.470309927548165  0.7068657140734541  -12.085288787292376  27.114414644346063  35.6894765378586  -18.66850500794585  20.98064960527272  0.000000
0.961  0.000000  0.000000  0.000000  -30.90784386607691  1.3859565024934843  13.648724392570596  55.644704390653914  0.7466573932254126  -12.243644018522806  26.55168559000893  37.071783555863554  -18.796977586410588  20.779315922578434  0.000000
0.992  0.000000  0.000000  0.000000  -30.754545659141563  1.59713215857467  14.66452201613663  55.81978996494044  0.780467776729516  -12.390518936903893  26.042013936522654  38.358445924697094  -18.97399937766549  20.552772096935115  0.000000
1.023  0.000000  0.000000  0.000000  -30.625757484831485  1.8240480525993077  15.693073304660748  55.99554207493645  0.8200807509001062  -12.506543163917202  25.57488664933932  39.562676284000936  -19.184296279458387  20.30669649583762  0.000000
1.054  0.000000  0.000000  0.000000  -30.533650235417248  2.0674680226785553  16.70391918500399  56.17356027777478  0.8795381405176592  -12.572253886554405  25.13838643811059  40.69884877921394  -19.41198120234482  20.047165608956895  0.000000
1.085  0.000000  0.000000  0.000000  -30.488157451502907  2.3283505309519166  17.67049275267049  56.35737838423046  0.9729521215686461  -12.56887907644872  24.71839589103642  41.78098443120366  -19.63897263627392  19.781156075404606  0.000000
